<svg width="1400" height="980" viewBox="0 0 1400 980" fill="none" xmlns="http://www.w3.org/2000/svg">
  <rect width="1400" height="980" rx="56" fill="#060706"/>
  <rect width="1400" height="980" rx="56" fill="url(#bg)"/>
  <path d="M0 672C212 570 332 620 510 508C716 378 830 180 1100 238C1230 266 1318 354 1400 470" stroke="#F7D158" stroke-width="10" stroke-linecap="round" opacity=".65"/>
  <path d="M0 754C230 690 392 720 590 596C748 497 890 410 1138 478C1238 506 1316 562 1400 632" stroke="#8DF0A8" stroke-width="5" stroke-linecap="round" opacity=".42"/>
  <g opacity=".14">
    <path d="M90 168H1310M90 286H1310M90 404H1310M90 522H1310M90 640H1310M90 758H1310" stroke="#F7D158"/>
    <path d="M204 100V846M348 100V846M492 100V846M636 100V846M780 100V846M924 100V846M1068 100V846M1212 100V846" stroke="#F7D158"/>
  </g>
  <ellipse cx="700" cy="760" rx="520" ry="140" fill="#030303" opacity=".42"/>
  <circle cx="1124" cy="184" r="250" fill="url(#goldGlow)" opacity=".7"/>
  <circle cx="214" cy="786" r="280" fill="#1D7A4F" opacity=".2"/>

  <g transform="translate(96 106)">
    <rect width="326" height="486" rx="34" fill="#121108" stroke="#F7D158" stroke-opacity=".24"/>
    <circle cx="163" cy="132" r="72" fill="#F7D158"/>
    <path d="M112 116C130 84 188 84 210 116C194 142 129 142 112 116Z" fill="#090805" opacity=".72"/>
    <path d="M94 286C102 234 132 206 163 206C194 206 224 234 232 286V344H94V286Z" fill="#FFF4C9"/>
    <rect x="114" y="322" width="98" height="18" rx="9" fill="#090805" opacity=".75"/>
    <text x="42" y="416" fill="#FFF7D8" font-family="Inter, Arial, sans-serif" font-size="37" font-weight="900" letter-spacing="-1.8">Legacy angle</text>
    <text x="42" y="454" fill="#BDB195" font-family="Inter, Arial, sans-serif" font-size="20" font-weight="650">career arcs, records, debates</text>
  </g>

  <g transform="translate(456 186)">
    <rect width="326" height="486" rx="34" fill="#121108" stroke="#8CC6FF" stroke-opacity=".24"/>
    <circle cx="163" cy="132" r="72" fill="#8CC6FF"/>
    <path d="M108 124C136 92 190 92 218 124C198 150 130 150 108 124Z" fill="#090805" opacity=".72"/>
    <path d="M94 286C102 234 132 206 163 206C194 206 224 234 232 286V344H94V286Z" fill="#F7D158"/>
    <rect x="121" y="246" width="84" height="84" rx="20" fill="#090805" opacity=".82"/>
    <text x="42" y="416" fill="#FFF7D8" font-family="Inter, Arial, sans-serif" font-size="37" font-weight="900" letter-spacing="-1.8">GOAT debate</text>
    <text x="42" y="454" fill="#BDB195" font-family="Inter, Arial, sans-serif" font-size="20" font-weight="650">stats, memory, emotion</text>
  </g>

  <g transform="translate(816 116)">
    <rect width="326" height="486" rx="34" fill="#121108" stroke="#F7D158" stroke-opacity=".24"/>
    <circle cx="163" cy="132" r="72" fill="#FFF4C9"/>
    <path d="M112 114C144 80 192 90 218 126C196 144 140 148 112 114Z" fill="#090805" opacity=".72"/>
    <path d="M94 286C102 234 132 206 163 206C194 206 224 234 232 286V344H94V286Z" fill="#8DF0A8"/>
    <path d="M116 286H210" stroke="#090805" stroke-width="13" stroke-linecap="round" opacity=".6"/>
    <text x="42" y="416" fill="#FFF7D8" font-family="Inter, Arial, sans-serif" font-size="37" font-weight="900" letter-spacing="-1.8">Skill edits</text>
    <text x="42" y="454" fill="#BDB195" font-family="Inter, Arial, sans-serif" font-size="20" font-weight="650">flair, reactions, remix formats</text>
  </g>

  <g transform="translate(1042 544)">
    <rect width="248" height="214" rx="30" fill="#090805" stroke="#F7D158" stroke-opacity=".28"/>
    <text x="28" y="54" fill="#F7D158" font-family="Inter, Arial, sans-serif" font-size="20" font-weight="900" letter-spacing="2">TREND DESK</text>
    <text x="28" y="104" fill="#FFF7D8" font-family="Inter, Arial, sans-serif" font-size="36" font-weight="900" letter-spacing="-1.8">7-day</text>
    <text x="28" y="140" fill="#FFF7D8" font-family="Inter, Arial, sans-serif" font-size="36" font-weight="900" letter-spacing="-1.8">content sprint</text>
    <rect x="28" y="164" width="158" height="14" rx="7" fill="#F7D158"/>
  </g>

  <g transform="translate(104 690)">
    <rect width="562" height="154" rx="28" fill="#090805" fill-opacity=".74" stroke="#F7D158" stroke-opacity=".24"/>
    <text x="34" y="52" fill="#F7D158" font-family="Inter, Arial, sans-serif" font-size="21" font-weight="900" letter-spacing="2">WORLD CUP SEASON</text>
    <text x="34" y="98" fill="#FFF7D8" font-family="Inter, Arial, sans-serif" font-size="34" font-weight="900" letter-spacing="-1.7">Turn football attention into posts, pages, and products.</text>
  </g>

  <defs>
    <linearGradient id="bg" x1="140" y1="34" x2="1178" y2="908" gradientUnits="userSpaceOnUse">
      <stop stop-color="#142514"/>
      <stop offset=".42" stop-color="#080806"/>
      <stop offset="1" stop-color="#2E1C04"/>
    </linearGradient>
    <radialGradient id="goldGlow" cx="0" cy="0" r="1" gradientUnits="userSpaceOnUse" gradientTransform="translate(1124 184) rotate(90) scale(250)">
      <stop stop-color="#FFE589"/>
      <stop offset=".5" stop-color="#D8A726" stop-opacity=".45"/>
      <stop offset="1" stop-color="#D8A726" stop-opacity="0"/>
    </radialGradient>
  </defs>
</svg>
