<svg width="960" height="1280" viewBox="0 0 960 1280" fill="none" xmlns="http://www.w3.org/2000/svg">
  <rect width="960" height="1280" rx="72" fill="#FBF4E6"/>
  <rect width="960" height="1280" rx="72" fill="url(#paper)"/>
  <circle cx="790" cy="178" r="240" fill="#EED18B" opacity=".34"/>
  <circle cx="158" cy="1048" r="280" fill="#A9B98A" opacity=".28"/>
  <path d="M96 362C198 315 322 336 430 282C552 221 658 216 804 270" stroke="#D8A93D" stroke-width="8" stroke-linecap="round" opacity=".42"/>
  <path d="M96 424C212 388 328 412 454 350C584 286 682 308 842 384" stroke="#8FA374" stroke-width="5" stroke-linecap="round" opacity=".38"/>
  <g opacity=".17" stroke="#8FA374" stroke-width="2">
    <path d="M108 612H852M108 696H852M108 780H852M108 864H852"/>
    <path d="M226 560V930M344 560V930M462 560V930M580 560V930M698 560V930"/>
    <rect x="108" y="560" width="744" height="370" rx="28"/>
    <circle cx="480" cy="745" r="76"/>
  </g>
  <rect x="72" y="72" width="816" height="1136" rx="52" stroke="#D1BD86" stroke-width="2"/>
  <rect x="116" y="116" width="184" height="52" rx="26" fill="#F4D37B"/>
  <text x="144" y="151" fill="#3C3C2C" font-family="Inter, Arial, sans-serif" font-size="24" font-weight="900" letter-spacing="2.2">FREE STARTER</text>
  <g transform="translate(112 246)">
    <rect width="274" height="178" rx="30" fill="#FFFDF6" stroke="#DFD3B4"/>
    <rect x="28" y="30" width="126" height="18" rx="9" fill="#D8A93D"/>
    <rect x="28" y="70" width="205" height="16" rx="8" fill="#9CAF7A" opacity=".44"/>
    <rect x="28" y="102" width="172" height="16" rx="8" fill="#9CAF7A" opacity=".32"/>
    <rect x="28" y="134" width="218" height="16" rx="8" fill="#9CAF7A" opacity=".24"/>
  </g>
  <g transform="translate(640 230)">
    <rect width="168" height="168" rx="42" fill="#F3D06C"/>
    <path d="M42 104L72 76L100 98L132 54" stroke="#2C2C20" stroke-width="13" stroke-linecap="round" stroke-linejoin="round"/>
  </g>
  <text x="112" y="548" fill="#20271C" font-family="Inter, Arial, sans-serif" font-size="86" font-weight="900" letter-spacing="-5">Goldmine</text>
  <text x="112" y="633" fill="#20271C" font-family="Inter, Arial, sans-serif" font-size="86" font-weight="900" letter-spacing="-5">Starter</text>
  <text x="116" y="698" fill="#6F7462" font-family="Inter, Arial, sans-serif" font-size="31" font-weight="650">5 football ideas + your first move</text>
  <g transform="translate(112 806)">
    <rect width="736" height="104" rx="30" fill="#FFFDF6" stroke="#DFD3B4"/>
    <text x="32" y="42" fill="#A77F22" font-family="Inter, Arial, sans-serif" font-size="22" font-weight="900" letter-spacing="1.5">INSIDE</text>
    <text x="32" y="76" fill="#303527" font-family="Inter, Arial, sans-serif" font-size="28" font-weight="800">Idea teasers, niche pick, platform workflow</text>
  </g>
  <g transform="translate(112 962)">
    <rect width="204" height="112" rx="30" fill="#FFFDF6" stroke="#DFD3B4"/>
    <text x="28" y="50" fill="#A77F22" font-family="Inter, Arial, sans-serif" font-size="38" font-weight="900">5</text>
    <text x="28" y="84" fill="#5B624F" font-family="Inter, Arial, sans-serif" font-size="21" font-weight="700">starter ideas</text>
    <rect x="254" width="204" height="112" rx="30" fill="#FFFDF6" stroke="#DFD3B4"/>
    <text x="282" y="50" fill="#A77F22" font-family="Inter, Arial, sans-serif" font-size="38" font-weight="900">1</text>
    <text x="282" y="84" fill="#5B624F" font-family="Inter, Arial, sans-serif" font-size="21" font-weight="700">best niche</text>
    <rect x="508" width="228" height="112" rx="30" fill="#FFFDF6" stroke="#DFD3B4"/>
    <text x="536" y="50" fill="#A77F22" font-family="Inter, Arial, sans-serif" font-size="38" font-weight="900">7</text>
    <text x="536" y="84" fill="#5B624F" font-family="Inter, Arial, sans-serif" font-size="21" font-weight="700">day direction</text>
  </g>
  <text x="112" y="1144" fill="#777A69" font-family="Inter, Arial, sans-serif" font-size="22" font-weight="700">goldmine.signalizeai.org</text>
  <defs>
    <linearGradient id="paper" x1="120" y1="60" x2="840" y2="1200" gradientUnits="userSpaceOnUse">
      <stop stop-color="#FFF9EA"/>
      <stop offset=".48" stop-color="#F7F0E2"/>
      <stop offset="1" stop-color="#EFE2C8"/>
    </linearGradient>
  </defs>
</svg>
